<svg width="800" height="800" viewBox="0 0 800 800" fill="none" xmlns="http://www.w3.org/2000/svg">
<path d="M400.071 628.811C383.886 628.811 369.8 622.843 358.192 611.07C346.774 599.474 340.983 585.431 340.983 569.326V363.38C340.983 347.36 346.774 333.36 358.192 321.77C369.831 309.912 383.922 303.889 400.071 303.889C416.336 303.889 430.512 309.906 442.212 321.764C453.637 333.365 459.429 347.366 459.429 363.38V569.325C459.429 585.436 453.637 599.48 442.206 611.069C430.605 622.843 416.427 628.811 400.071 628.811ZM400.071 328.886C390.63 328.886 382.983 332.194 376.02 339.291C369.258 346.157 365.98 354.03 365.98 363.38V569.325C365.98 578.895 369.166 586.584 376.001 593.524C382.922 600.542 390.569 603.814 400.071 603.814C409.616 603.814 417.581 600.445 424.404 593.517C431.245 586.585 434.431 578.895 434.431 569.325V363.38C434.431 354.03 431.154 346.157 424.404 339.31C417.391 332.2 409.659 328.886 400.071 328.886ZM400.071 264C383.954 264 369.844 258.232 358.125 246.851C346.401 234.791 340.585 220.681 340.585 204.649C340.585 188.451 346.42 174.317 357.93 162.636C369.734 150.997 383.867 145.157 400.071 145.157C416.104 145.157 430.22 150.974 442.023 162.454C453.655 174.415 459.429 188.531 459.429 204.65C459.429 220.604 453.68 234.695 442.334 246.535C430.11 258.25 416.019 264 400.071 264ZM400.071 170.154C390.539 170.154 382.537 173.474 375.61 180.309C368.902 187.114 365.582 195.121 365.582 204.647C365.582 214.076 368.927 222.102 375.799 229.175C382.524 235.705 390.55 239.001 400.07 239.001C409.486 239.001 417.53 235.681 424.665 228.857C431.11 222.107 434.43 214.064 434.43 204.647C434.43 195.126 431.129 187.107 424.341 180.12C417.526 173.499 409.5 170.154 400.071 170.154Z" fill="#2A431C"/>
<path d="M399.986 787.5C334.226 787.5 268.54 770.595 209.006 736.931L33.5512 752.5C28.8275 752.866 24.3962 750.694 21.895 746.751C19.3925 742.803 19.295 737.792 21.6512 733.752L84.9262 625.285C74.5812 610.809 65.1887 595.539 56.95 579.794C-42.2838 390.656 30.8663 156.034 220.021 56.7938C409.159 -42.44 643.817 30.7163 743.057 219.871C842.286 409.058 769.117 643.691 579.944 742.92C523.229 772.67 461.571 787.5 399.986 787.5ZM211.807 711.634C213.999 711.634 216.159 712.214 218.069 713.312C326.591 776.13 457.525 778.92 568.336 720.776C745.297 627.956 813.749 408.456 720.916 231.476C628.09 54.5388 408.591 -13.9125 231.629 78.9325C145.925 123.9 82.8512 199.559 54.0387 291.97C25.2262 384.381 34.125 482.48 79.0925 568.19C88.0087 585.224 98.36 601.652 109.857 617.026C112.866 621.047 113.171 626.48 110.645 630.813L55.425 725.464L210.702 711.684C211.069 711.653 211.441 711.634 211.807 711.634Z" fill="#2A431C"/>
</svg>
