<svg width="800" height="800" viewBox="0 0 800 800" fill="none" xmlns="http://www.w3.org/2000/svg">
<path d="M787.467 343.303H772.839V129.391H781.156C788.08 129.391 793.689 123.78 793.689 116.858V58.9547C793.689 52.0312 788.08 46.4219 781.156 46.4219H183.908C176.984 46.4219 171.375 52.0312 171.375 58.9547V116.858C171.375 123.78 176.984 129.391 183.908 129.391H192.228V343.303H12.5328C5.60937 343.303 0 348.912 0 355.836V430.964C0 437.887 5.60937 443.497 12.5328 443.497H27.0547V741.044C27.0547 747.967 32.6641 753.577 39.5875 753.577H760.413C767.336 753.577 772.945 747.967 772.945 741.044V443.497H787.466C794.389 443.497 799.998 437.887 799.998 430.964V355.836C800 348.912 794.391 343.303 787.467 343.303ZM549.4 71.4859H768.622V104.323H549.4V71.4859ZM549.4 129.391H747.772V343.303H549.4V129.391ZM196.442 71.4859H524.336V104.323H196.442V71.4859ZM353.669 312.347C360.592 312.347 366.202 306.736 366.202 299.813V236.347C366.202 229.423 360.592 223.814 353.669 223.814H217.295V129.391H524.336V343.303H217.294V312.347H353.669ZM217.294 287.278V248.878H341.134V287.278H217.294ZM52.1219 728.511V680.884H232.797C239.72 680.884 245.33 675.275 245.33 668.352V586.003C245.33 579.08 239.72 573.47 232.797 573.47H52.1219V443.498H457.967V728.511H52.1219ZM52.1219 655.819V598.538H220.266V655.819H52.1219ZM457.969 418.431H25.0656V368.369H457.969V418.431ZM747.88 728.511H483.034V443.498H747.88V728.511ZM774.934 418.431H483.034V368.369H774.933V418.431H774.934Z" fill="#2A431C"/>
<path d="M588 534.395H681.17C700.292 534.395 715.85 518.836 715.85 499.714C715.85 480.592 700.292 465.034 681.17 465.034H588C568.878 465.034 553.319 480.592 553.319 499.714C553.319 518.836 568.878 534.395 588 534.395ZM588 490.1H681.17C686.47 490.1 690.784 494.413 690.784 499.714C690.784 505.016 686.472 509.33 681.17 509.33H588C582.698 509.33 578.384 505.017 578.384 499.714C578.386 494.413 582.698 490.1 588 490.1Z" fill="#2A431C"/>
<path d="M699.233 140.239H627.427C611.103 140.239 597.823 153.517 597.823 169.841C597.823 186.166 611.103 199.445 627.427 199.445H699.233C715.556 199.445 728.836 186.166 728.836 169.841C728.837 153.517 715.555 140.239 699.233 140.239ZM699.233 174.38H627.427C624.925 174.38 622.889 172.342 622.889 169.841C622.889 167.341 624.925 165.305 627.427 165.305H699.233C701.734 165.305 703.77 167.341 703.77 169.841C703.77 172.342 701.734 174.38 699.233 174.38Z" fill="#2A431C"/>
</svg>
