<svg width="800" height="800" viewBox="0 0 800 800" fill="none" xmlns="http://www.w3.org/2000/svg">
<path d="M406.201 579.486C427.369 594.122 460.547 608.515 494.226 608.515C498.194 608.515 502.161 608.314 506.116 607.893C527.015 605.646 548.267 597.175 563.037 585.175C563.257 584.992 585.327 566.602 585.571 548.047C585.84 527.362 567.016 506.8 547.949 487.762C518.176 456.33 498.181 444.207 465.161 460.132C464.405 460.499 463.696 460.939 463.025 461.445C456.665 461.439 434.705 448.591 416.296 420.905C411.95 414.405 407.69 407.232 403.65 399.61C399.646 392.017 396.119 384.461 393.176 377.149C380.139 344.836 382.751 320.618 386.109 315.674C386.89 315.411 387.646 315.07 388.367 314.66C420.24 296.35 421.461 272.998 412.33 231.048C407.301 204.241 400.941 177.105 383.729 165.649C370.801 157.08 347.974 161.071 340.284 163.348C322.364 168.658 302.906 181.756 289.527 197.515C264.991 226.311 256.422 267.296 256.592 296.031C256.812 342.449 273.634 401.305 301.575 453.477C328.881 505.981 367.981 553.082 406.201 579.486ZM308.557 213.715C318.836 201.624 334.07 191.266 347.376 187.318C351.869 185.993 357.507 185.376 362.097 185.376C365.711 185.376 368.665 185.761 369.897 186.475C379.761 193.043 385.364 222.908 387.83 236.011C396.497 275.843 392.164 283.399 377.149 292.261C372.864 293.739 367.676 297.059 363.819 304.414C354.7 321.773 357.177 354.761 369.984 386.5C373.255 394.599 377.137 402.931 381.556 411.299C386 419.691 390.699 427.595 395.485 434.766C414.455 463.276 440.297 483.949 459.791 486.206C467.982 487.182 473.695 484.754 477.332 482.025C493.36 474.487 501.625 475.201 530.042 505.2C539.222 514.374 560.731 535.857 560.572 547.674C560.34 550.921 553.651 560.515 547.206 565.825C536.427 574.584 519.252 581.334 503.456 583.038C472.706 586.321 439.467 572.094 420.411 558.916C385.377 534.71 349.232 490.96 323.731 441.881C323.706 441.832 323.682 441.784 323.657 441.741C297.522 392.974 281.787 338.464 281.592 295.898C281.457 272.748 288.44 237.341 308.557 213.715Z" fill="#2A431C"/>
<path d="M739.697 136.7H705.909V96.8938C705.909 50.36 668.054 12.5 621.521 12.5H155.945C109.411 12.5 71.5575 50.36 71.5575 96.8938V168.244H68.665C41.1987 168.244 18.86 190.57 18.86 218.011C18.86 245.453 41.1987 267.779 68.665 267.779H71.5575V350.206H65.6737C38.2325 350.206 15.9175 372.532 15.9175 399.974C15.9175 427.446 38.2325 449.791 65.6737 449.791H71.5575V536.895H65.5887C38.1475 536.895 15.8212 559.221 15.8212 586.662C15.8212 614.104 38.1475 636.43 65.5887 636.43H71.5575V703.105C71.5575 749.639 109.411 787.499 155.945 787.499H621.521C668.055 787.499 705.909 749.639 705.909 703.105V678.556H739.697C764.221 678.556 784.18 658.623 784.18 634.116V181.134C784.18 156.635 764.221 136.7 739.697 136.7ZM705.909 363.599H759.18V443.079H705.909V363.599ZM705.909 338.599V265.009H759.18V338.599H705.909ZM705.909 468.079H759.18V547.516H705.909V468.079ZM739.697 161.7C750.44 161.7 759.18 170.416 759.18 181.134V240.009H705.909V161.7H739.697ZM155.945 37.5H621.521C649.979 37.5 673.769 57.635 679.53 84.3938H97.935C103.697 57.635 127.487 37.5 155.945 37.5ZM43.86 218.011C43.86 204.351 54.9925 193.244 68.665 193.244H105.42C119.08 193.244 130.187 204.353 130.187 218.011C130.187 231.67 119.079 242.779 105.42 242.779H68.665C54.9925 242.78 43.86 231.671 43.86 218.011ZM40.9175 399.975C40.9175 386.315 52.0262 375.207 65.6737 375.207H102.429C116.089 375.207 127.196 386.316 127.196 399.975C127.196 413.659 116.087 424.792 102.429 424.792H65.6737C52.0262 424.792 40.9175 413.66 40.9175 399.975ZM40.82 586.664C40.82 573.004 51.9287 561.896 65.5875 561.896H102.342C116.002 561.896 127.111 573.005 127.111 586.664C127.111 600.323 116.002 611.431 102.342 611.431H65.5887C51.9287 611.433 40.82 600.324 40.82 586.664ZM102.344 636.433C129.785 636.433 152.112 614.106 152.112 586.665C152.112 559.224 129.786 536.898 102.344 536.898H96.5575V449.794H102.429C129.87 449.794 152.196 427.449 152.196 399.976C152.196 372.535 129.87 350.209 102.429 350.209H96.5575V267.781H105.42C132.861 267.781 155.187 245.455 155.187 218.014C155.187 190.572 132.861 168.246 105.42 168.246H96.5575V109.396H680.907V149.204V666.061V690.61H96.5575V636.435L102.344 636.433ZM621.521 762.5H155.945C127.487 762.5 103.697 742.365 97.9362 715.606H679.531C673.769 742.365 649.979 762.5 621.521 762.5ZM739.697 653.559H705.909V572.516H759.18V634.119C759.18 644.836 750.44 653.559 739.697 653.559Z" fill="#2A431C"/>
</svg>
