<svg width="876" height="876" viewBox="0 0 876 876" fill="none" xmlns="http://www.w3.org/2000/svg">
<path d="M263.426 821.844H465.594C489.653 839.99 519.124 850.033 549.283 850.033C586.153 849.975 621.494 835.294 647.553 809.212C673.612 783.129 688.261 747.775 688.286 710.905C688.261 674.036 673.612 638.681 647.553 612.599C621.494 586.516 586.153 571.836 549.283 571.778C542.307 571.778 535.392 572.404 528.541 573.467V398.111C528.541 355.343 497.036 319.771 455.989 313.452V191.25C471.351 186.369 482.613 172.134 482.613 155.177C482.613 136.75 469.442 121.357 452.016 117.916V75.7115C452.016 72.232 450.636 68.8945 448.178 66.4312C445.721 63.9679 442.387 62.5798 438.907 62.5715H339.919C336.44 62.5798 333.106 63.9679 330.648 66.4312C328.191 68.8945 326.811 72.232 326.811 75.7115V117.916C309.384 121.389 296.213 136.781 296.213 155.177C296.213 172.134 307.476 186.369 322.837 191.25V313.42C304.911 316.142 288.423 324.464 275.377 337.51C267.394 345.449 261.065 354.894 256.758 365.296C252.451 375.698 250.251 386.852 250.286 398.111V808.736C250.286 812.215 251.666 815.553 254.123 818.016C256.581 820.479 259.915 821.868 263.394 821.876L263.426 821.844ZM518.999 602.187C528.791 599.403 539.022 597.995 549.283 597.995C579.194 598.045 607.863 609.957 629.002 631.119C650.14 652.281 662.02 680.963 662.037 710.874C662.02 740.785 650.14 769.467 629.002 790.629C607.863 811.791 579.194 823.703 549.283 823.753C523.473 823.753 498.225 814.774 478.202 798.505C465.141 787.941 454.608 774.588 447.376 759.425C440.144 744.262 436.395 727.673 436.404 710.874C436.404 704.554 436.936 698.329 437.969 692.259C445.133 649.711 476.419 614.013 518.999 602.187ZM353.059 88.789H425.767V117.134H353.059V88.789ZM322.462 155.146C322.462 148.639 327.749 143.383 334.225 143.383H339.919H438.907H444.601C451.077 143.383 456.365 148.67 456.365 155.146C456.365 161.622 451.077 166.909 444.601 166.909H334.225C327.749 166.909 322.462 161.622 322.462 155.146ZM276.534 398.08C276.534 382.186 282.698 367.263 293.929 356.063C305.161 344.863 320.084 338.668 335.977 338.668C339.451 338.66 342.781 337.276 345.237 334.819C347.694 332.363 349.078 329.033 349.086 325.559V193.221H429.772V325.559C429.78 329.033 431.164 332.363 433.62 334.819C436.077 337.276 439.406 338.66 442.881 338.668C458.635 338.676 473.742 344.938 484.882 356.078C496.022 367.218 502.284 382.325 502.292 398.08V579.975L501.541 580.288L497.412 581.946L491.248 584.542L486.993 586.67L481.425 589.548L477.201 592.082L472.07 595.305L468.003 598.183L463.248 601.749L459.368 604.941L454.988 608.82L451.359 612.324L447.323 616.516L443.976 620.302L440.284 624.776L437.218 628.78L433.902 633.536L431.148 637.759L428.176 642.796L425.767 647.176L423.171 652.526L421.137 657.031L418.947 662.663L417.289 667.231L415.506 673.206L414.223 677.774L412.846 684.25L411.97 688.599L411.032 695.982L410.594 699.643L410.124 710.905C410.124 715.629 410.437 720.291 410.907 724.921L411.407 728.957L413.159 739.344L413.941 743.036L417.727 756.301L418.227 757.615L422.92 769.066L424.641 772.632L429.772 782.049L431.493 784.959L438.845 795.596H276.472V398.111L276.534 398.08Z" fill="#2A431C"/>
<path d="M517.935 838.488C532.6 838.472 546.659 832.639 557.029 822.269C567.399 811.9 573.232 797.84 573.248 783.175C573.248 758.491 537.27 671.172 530.043 653.903C529.038 651.521 527.354 649.489 525.2 648.06C523.047 646.63 520.52 645.868 517.935 645.868C515.35 645.868 512.823 646.63 510.67 648.06C508.516 649.489 506.832 651.521 505.827 653.903C498.6 671.172 462.622 758.491 462.622 783.175C462.638 797.84 468.471 811.9 478.841 822.269C489.211 832.639 503.27 838.472 517.935 838.488ZM517.935 693.98C532.452 730.959 546.999 772.1 546.999 783.175C546.991 790.881 543.926 798.269 538.478 803.718C533.029 809.167 525.641 812.231 517.935 812.24C510.229 812.231 502.841 809.167 497.392 803.718C491.944 798.269 488.879 790.881 488.871 783.175C488.871 772.1 503.418 730.959 517.935 693.98Z" fill="#2A431C"/>
</svg>
